<svg width="233" height="96" viewBox="0 0 233 96" fill="none" xmlns="http://www.w3.org/2000/svg">
<path d="M0 62V0.167995H3.144V62H0ZM12.576 62V0.167995H18.864V62H12.576ZM22.008 62V0.167995H31.44V62H22.008ZM10.1656 71.1176H13.3096V71.432C13.1699 71.5717 13.0651 71.7464 12.9952 71.956C12.9952 72.0957 12.9952 72.4101 12.9952 72.8992V93.1256H24.628V95.4312H10.1656V71.1176ZM34.5922 62V0.167995H40.8802V62H34.5922ZM50.3122 62V0.167995H53.4562V62H50.3122ZM62.8882 62V0.167995H66.0322V62H62.8882ZM45.2818 93.1256H50.1026V73.4232H45.5962V71.1176H57.6482V73.4232H52.8274V93.1256H57.8578V95.4312H45.2818V93.1256ZM69.1844 62V0.167995H72.3284V62H69.1844ZM75.4724 62V0.167995H84.9044V62H75.4724ZM94.3364 62V0.167995H100.624V62H94.3364ZM78.7212 71.1176H81.3412L91.5068 89.1432V71.1176H94.546V71.432C94.3364 71.5717 94.2316 71.7464 94.2316 71.956C94.1617 72.0957 94.1268 72.4101 94.1268 72.8992V95.4312H92.0308L81.2364 76.3576V95.4312H78.7212V71.1176ZM103.777 62V0.167995H106.921V62H103.777ZM110.065 62V0.167995H116.353V62H110.065ZM125.785 62V0.167995H135.217V62H125.785ZM117.82 83.2744L115.829 85.3704V95.4312H112.999V71.1176H116.248V71.432C116.108 71.5717 116.003 71.7464 115.933 71.956C115.863 72.0957 115.829 72.4101 115.829 72.8992V82.3312L125.994 71.0128C126.623 71.0827 127.287 71.1176 127.985 71.1176H129.033L119.811 81.5976L129.662 95.4312L126.204 95.536L117.82 83.2744ZM138.369 62V0.167995H141.513V62H138.369ZM144.657 62V0.167995H147.801V62H144.657ZM157.233 62V0.167995H163.521V62H157.233ZM159.538 88.3048H151.678L149.268 95.4312H146.543L155.451 70.6984H155.766L164.778 95.4312H161.949L159.538 88.3048ZM158.805 86.2088L155.661 76.9864L152.412 86.2088H158.805ZM172.961 62V0.167995H179.249V62H172.961ZM182.393 62V0.167995H185.537V62H182.393ZM194.969 62V0.167995H198.113V62H194.969ZM191.301 95.8504C189.345 95.8504 187.668 95.3264 186.271 94.2784C184.873 93.3003 183.79 91.868 183.022 89.9816C182.253 88.1651 181.869 86.0341 181.869 83.5888C181.869 80.3749 182.358 77.8248 183.336 75.9384C184.314 74.052 185.502 72.7245 186.899 71.956C188.297 71.2573 189.694 70.908 191.091 70.908C192.559 70.908 193.956 71.2923 195.283 72.0608C196.681 72.7595 197.694 73.7376 198.323 74.9952L196.436 76.4624L196.122 76.7768L196.017 76.5672C196.017 76.3576 195.982 76.148 195.912 75.9384C195.772 75.7987 195.563 75.5541 195.283 75.2048C194.655 74.5061 194.026 74.0171 193.397 73.7376C192.768 73.4581 192 73.3184 191.091 73.3184C189.205 73.3184 187.633 74.052 186.375 75.5192C185.188 77.0563 184.594 79.5365 184.594 82.96C184.594 86.3136 185.188 88.8987 186.375 90.7152C187.563 92.5317 189.205 93.44 191.301 93.44C192.069 93.44 192.873 93.3003 193.711 93.0208C194.62 92.8112 195.353 92.4619 195.912 91.9728V86.2088H191.511V83.7984H198.427V93.3352C196.122 95.012 193.746 95.8504 191.301 95.8504ZM207.553 62V0.167995H210.697V62H207.553ZM220.129 62V0.167995H226.417V62H220.129ZM229.561 62V0.167995H232.705V62H229.561ZM217.404 71.1176H232.286V73.528H219.92V81.4928H230.19V84.008H219.92V93.0208H232.181V95.4312H217.404V71.1176Z" fill="black"/>
</svg>
